<svg width="178" height="178" xmlns="http://www.w3.org/2000/svg" xmlns:xlink="http://www.w3.org/1999/xlink" xml:space="preserve" overflow="hidden"><defs><clipPath id="clip0"><rect x="964" y="2164" width="178" height="178"/></clipPath></defs><g clip-path="url(#clip0)" transform="translate(-964 -2164)"><path d="M1083.88 2218.1C1078.95 2218.08 1074.03 2218.95 1069.38 2220.64 1065.65 2221.95 1062.13 2223.86 1059.02 2226.31 1058.37 2226.84 1057.73 2227.38 1057.13 2227.95L1056.64 2228.44 1055.97 2229.16 1055.5 2229.62 1054.7 2230.47C1054.1 2231.13 1053.54 2231.81 1053.01 2232.45L1052.99 2232.43C1051.9 2233.74 1050.9 2235.14 1050.14 2236.37 1049.63 2237.17 1049.14 2237.99 1048.67 2238.81L1042.14 2252 1042.16 2252 1041.8 2252.69 1041.09 2254.14C1039.67 2257.05 1038.13 2259.94 1036.42 2262.32 1032.59 2266.5 1028.28 2268.57 1022.72 2268.57 1022.34 2268.57 1021.94 2268.55 1021.54 2268.53 1018.19 2268.4 1015.32 2267.59 1012.78 2266.08 1010.38 2264.7 1008.4 2262.68 1007.11 2260.23 1005.8 2257.83 1005.18 2255.14 1005.27 2252.43L1005.27 2252.23C1005.44 2247.92 1007.09 2244.53 1010.42 2241.64 1011.23 2240.93 1012.07 2240.35 1012.96 2239.82 1013.07 2239.75 1013.2 2239.69 1013.31 2239.62 1015.8 2238.26 1018.61 2237.59 1021.81 2237.59L1022.81 2237.62C1027.95 2237.82 1031.88 2239.42 1035.04 2242.53L1044.89 2224.81C1042.4 2223.16 1039.74 2221.8 1036.93 2220.78 1036.82 2220.74 1036.71 2220.67 1036.6 2220.65 1036.24 2220.52 1035.88 2220.38 1035.53 2220.27 1032.37 2219.22 1029.08 2218.56 1025.77 2218.29 1025.68 2218.29 1025.59 2218.27 1025.5 2218.27 1024.99 2218.22 1024.45 2218.18 1023.94 2218.15 1023.39 2218.13 1022.81 2218.11 1022.25 2218.11L1021.94 2218.11C1015.98 2218.07 1010.09 2219.38 1004.71 2221.92 998.925 2224.65 993.988 2228.92 990.449 2234.26 986.645 2239.95 984.62 2246.65 984.667 2253.5 984.646 2262.42 987.891 2270.22 994.343 2276.8 1001.1 2283.7 1009.84 2287.41 1020.36 2287.86 1021.03 2287.88 1021.7 2287.9 1022.37 2287.9 1028.31 2287.9 1033.82 2286.83 1038.76 2284.72 1039.98 2284.18 1041.18 2283.58 1042.4 2282.89 1043.07 2282.51 1043.69 2282.09 1044.34 2281.67L1044.78 2281.36 1045.56 2280.83C1046.5 2280.16 1047.36 2279.43 1048.23 2278.65L1048.52 2278.36C1049.03 2277.89 1049.52 2277.4 1049.99 2276.91L1051.77 2274.91 1052.43 2274.06 1052.77 2273.6 1053.08 2273.15C1055.71 2268.75 1064.27 2252.65 1064.27 2252.65L1064.27 2252.63 1064.78 2251.65 1065.2 2250.87C1066.45 2248.59 1067.36 2246.96 1068.58 2245.25L1068.6 2245.18C1071.41 2241.11 1076.26 2238.2 1081.97 2237.71 1091.53 2236.88 1099.92 2243.18 1100.67 2251.74 1101.45 2260.32 1094.31 2267.95 1084.75 2268.77 1082.81 2268.93 1080.88 2268.82 1078.99 2268.39L1078.95 2268.41C1071.92 2266.95 1067.45 2261.86 1065.25 2259.54L1056.04 2276.49C1056.04 2276.49 1058.91 2279.36 1060.87 2280.8 1062.85 2282.25 1065.38 2283.65 1067.41 2284.54 1072.5 2286.74 1077.99 2287.89 1083.55 2287.89 1084.24 2287.89 1084.1 2287.89 1084.82 2287.85 1095.31 2287.43 1104.68 2283.4 1111.44 2276.51 1117.82 2269.95 1121.29 2262.48 1121.33 2253.63L1121.33 2253.36 1121.27 2251.88C1121.25 2251.35 1121.23 2250.84 1121.16 2250.3L1121.16 2250.28C1120.67 2244.54 1118.73 2239.03 1115.53 2234.27 1114.11 2232.11 1112.44 2230.13 1110.59 2228.35 1107.84 2225.71 1104.7 2223.55 1101.25 2221.91 1095.83 2219.35 1089.89 2218.06 1083.88 2218.1ZM1053 2164C1102.15 2164 1142 2203.85 1142 2253 1142 2302.15 1102.15 2342 1053 2342 1003.85 2342 964 2302.15 964 2253 964 2203.85 1003.85 2164 1053 2164Z" fill-rule="evenodd"/></g></svg>