<svg width="178" height="178" xmlns="http://www.w3.org/2000/svg" xmlns:xlink="http://www.w3.org/1999/xlink" xml:space="preserve" overflow="hidden"><defs><clipPath id="clip0"><rect x="674" y="2164" width="178" height="178"/></clipPath></defs><g clip-path="url(#clip0)" transform="translate(-674 -2164)"><path d="M726.552 2204.5 757.711 2222.38 757.711 2251.75 726.552 2269.52ZM727.245 2193.27C724.936 2192.01 722.122 2192.09 719.894 2193.5 717.763 2194.83 716.471 2197.17 716.479 2199.68L716.479 2274.33C716.469 2278.35 719.718 2281.61 723.736 2281.62 724.958 2281.62 726.161 2281.32 727.234 2280.73L757.706 2263.36 757.706 2287.01C757.709 2288.82 758.68 2290.49 760.252 2291.39L799.302 2313.62 809.455 2307.8 767.779 2284.07 767.779 2257.61 809.521 2233.8 799.372 2227.98 767.779 2246 767.779 2219.46C767.779 2217.66 766.809 2215.98 765.253 2215.08ZM763 2164C812.153 2164 852 2203.85 852 2253 852 2302.15 812.153 2342 763 2342 713.847 2342 674 2302.15 674 2253 674 2203.85 713.847 2164 763 2164Z" fill-rule="evenodd"/></g></svg>