<svg width="178" height="179" xmlns="http://www.w3.org/2000/svg" xmlns:xlink="http://www.w3.org/1999/xlink" xml:space="preserve" overflow="hidden"><defs><clipPath id="clip0"><rect x="384" y="2164" width="178" height="179"/></clipPath></defs><g clip-path="url(#clip0)" transform="translate(-384 -2164)"><path d="M473 2164C423.848 2164 384 2204.07 384 2253.5 384 2295.76 413.137 2331.16 452.307 2340.54 450.281 2340.06 448.272 2339.51 446.3 2338.89L446.3 2318.39C446.3 2318.39 442.962 2319.51 438.513 2319.51 426.063 2319.51 420.891 2308.34 419.6 2302.73 418.816 2299.31 416.769 2296.07 414.572 2294.09 411.946 2291.73 410.717 2291.73 410.7 2290.92 410.666 2289.23 412.952 2289.3 414.038 2289.3 419.6 2289.3 423.817 2295.25 425.775 2298.33 430.626 2305.93 435.832 2307.2 438.513 2307.2 441.85 2307.2 444.732 2306.7 446.718 2305.73 447.635 2299.23 450.51 2293.44 455.2 2289.3 434.329 2285.1 419.6 2273.07 419.6 2253.5 419.6 2243.42 423.622 2234.16 430.325 2226.68 429.64 2224.73 428.5 2220.78 428.5 2214.34 428.5 2210.09 428.794 2204.87 430.725 2199.8 430.725 2199.8 443.418 2199.89 455.388 2211.29 460.913 2209.67 466.825 2208.75 473 2208.75 479.175 2208.75 485.087 2209.67 490.612 2211.29 502.582 2199.89 515.275 2199.8 515.275 2199.8 517.216 2204.87 517.5 2210.09 517.5 2214.34 517.5 2221.28 516.583 2225.32 516.021 2227.07 522.518 2234.48 526.4 2243.6 526.4 2253.5 526.4 2273.07 511.671 2285.1 490.8 2289.3 496.373 2294.22 499.7 2301.39 499.7 2309.44L499.7 2338.89C497.728 2339.52 495.722 2340.06 493.693 2340.54 532.863 2331.16 562 2295.76 562 2253.5 562 2204.07 522.152 2164 473 2164ZM479.206 2342.76C477.155 2342.9 475.088 2343 473 2343 475.088 2343 477.152 2342.9 479.206 2342.76ZM492.806 2340.75C488.822 2341.66 484.738 2342.3 480.569 2342.66 484.738 2342.3 488.822 2341.66 492.806 2340.75ZM473 2343C470.912 2343 468.845 2342.9 466.794 2342.76 468.848 2342.9 470.912 2343 473 2343ZM465.428 2342.66C461.262 2342.3 457.175 2341.66 453.194 2340.75 457.178 2341.66 461.262 2342.3 465.428 2342.66Z" fill-rule="evenodd"/></g></svg>