<svg width="178" height="178" xmlns="http://www.w3.org/2000/svg" xmlns:xlink="http://www.w3.org/1999/xlink" xml:space="preserve" overflow="hidden"><defs><clipPath id="clip0"><rect x="1780" y="2164" width="178" height="178"/></clipPath></defs><g clip-path="url(#clip0)" transform="translate(-1780 -2164)"><path d="M1868.96 2235.76C1859.44 2235.79 1851.74 2243.52 1851.76 2253.04 1851.79 2262.56 1859.52 2270.26 1869.04 2270.24 1878.56 2270.21 1886.26 2262.48 1886.24 2252.96 1886.21 2243.44 1878.48 2235.74 1868.96 2235.76ZM1868.93 2224.27C1884.8 2224.24 1897.69 2237.07 1897.73 2252.93 1897.76 2268.8 1884.93 2281.69 1869.07 2281.73 1853.2 2281.76 1840.31 2268.93 1840.27 2253.07 1840.24 2237.2 1853.07 2224.31 1868.93 2224.27ZM1903.46 2212.78C1906.63 2212.77 1909.21 2215.34 1909.22 2218.51 1909.23 2221.68 1906.66 2224.26 1903.49 2224.27 1900.31 2224.28 1897.74 2221.72 1897.73 2218.54 1897.72 2215.37 1900.28 2212.79 1903.46 2212.78ZM1868.48 2195.55C1815.68 2195.55 1811.55 2199.68 1811.55 2252.48L1811.55 2253.52C1811.55 2306.32 1815.68 2310.45 1868.48 2310.45L1869.52 2310.45C1922.32 2310.45 1926.45 2306.32 1926.45 2253.52L1926.45 2253C1926.45 2199.72 1922.28 2195.55 1869 2195.55ZM1869 2164C1918.15 2164 1958 2203.85 1958 2253 1958 2302.15 1918.15 2342 1869 2342 1819.85 2342 1780 2302.15 1780 2253 1780 2203.85 1819.85 2164 1869 2164Z" fill-rule="evenodd"/></g></svg>