<svg width="179" height="178" xmlns="http://www.w3.org/2000/svg" xmlns:xlink="http://www.w3.org/1999/xlink" xml:space="preserve" overflow="hidden"><defs><clipPath id="clip0"><rect x="2043" y="2164" width="179" height="178"/></clipPath></defs><g clip-path="url(#clip0)" transform="translate(-2043 -2164)"><path d="M2043 2253C2043 2203.85 2083.07 2164 2132.5 2164 2181.93 2164 2222 2203.85 2222 2253 2222 2302.15 2181.93 2342 2132.5 2342 2083.07 2342 2043 2302.15 2043 2253Z" fill-rule="evenodd"/><path d="M2080 2249C2080 2220.83 2102.83 2198 2131 2198 2159.17 2198 2182 2220.83 2182 2249 2182 2277.17 2159.17 2300 2131 2300 2102.83 2300 2080 2277.17 2080 2249Z" fill="#FFFFFF" fill-rule="evenodd"/><path d="M2175.67 2188 2090.33 2188C2082.97 2188 2077 2193.97 2077 2201.33L2077 2286.67C2077 2294.03 2082.97 2300 2090.33 2300L2175.67 2300C2183.03 2300 2189 2294.03 2189 2286.67L2189 2201.33C2189 2193.97 2183.03 2188 2175.67 2188ZM2111.67 2230.67 2111.67 2281.33 2095.67 2281.33 2095.67 2230.67 2111.67 2230.67ZM2095.67 2215.92C2095.67 2212.19 2098.87 2209.33 2103.67 2209.33 2108.47 2209.33 2111.48 2212.19 2111.67 2215.92 2111.67 2219.65 2108.68 2222.67 2103.67 2222.67 2098.87 2222.67 2095.67 2219.65 2095.67 2215.92ZM2170.33 2281.33 2154.33 2281.33C2154.33 2281.33 2154.33 2256.64 2154.33 2254.67 2154.33 2249.33 2151.67 2244 2145 2243.89L2144.79 2243.89C2138.33 2243.89 2135.67 2249.39 2135.67 2254.67 2135.67 2257.09 2135.67 2281.33 2135.67 2281.33L2119.67 2281.33 2119.67 2230.67 2135.67 2230.67 2135.67 2237.49C2135.67 2237.49 2140.81 2230.67 2151.16 2230.67 2161.75 2230.67 2170.33 2237.95 2170.33 2252.69L2170.33 2281.33Z" fill-rule="evenodd"/></g></svg>