<svg width="179" height="178" xmlns="http://www.w3.org/2000/svg" xmlns:xlink="http://www.w3.org/1999/xlink" xml:space="preserve" overflow="hidden"><defs><clipPath id="clip0"><rect x="1253" y="2164" width="179" height="178"/></clipPath></defs><g clip-path="url(#clip0)" transform="translate(-1253 -2164)"><path d="M1338.48 2288.98 1338.48 2300.97 1327.76 2300.97 1327.76 2306.3 1338.48 2306.3 1338.48 2318.3 1343.84 2318.3 1343.84 2306.3 1354.56 2306.3 1354.56 2300.97 1343.84 2300.97 1343.84 2288.98ZM1371.98 2264.99 1371.98 2280.98 1355.9 2280.98 1355.9 2286.31 1371.98 2286.31 1371.98 2302.31 1377.34 2302.31 1377.34 2286.31 1393.42 2286.31 1393.42 2280.98 1377.34 2280.98 1377.34 2264.99ZM1304.98 2264.99 1304.98 2280.98 1288.9 2280.98 1288.9 2286.31 1304.98 2286.31 1304.98 2302.31 1310.34 2302.31 1310.34 2286.31 1326.42 2286.31 1326.42 2280.98 1310.34 2280.98 1310.34 2264.99ZM1390.74 2238.34 1390.74 2250.33 1380.02 2250.33 1380.02 2255.67 1390.74 2255.67 1390.74 2267.66 1396.1 2267.66 1396.1 2255.67 1406.82 2255.67 1406.82 2250.33 1396.1 2250.33 1396.1 2238.34ZM1288.9 2238.34 1288.9 2250.33 1278.18 2250.33 1278.18 2255.67 1288.9 2255.67 1288.9 2267.66 1294.26 2267.66 1294.26 2255.67 1304.98 2255.67 1304.98 2250.33 1294.26 2250.33 1294.26 2238.34ZM1337.14 2230.35 1337.14 2249 1318.38 2249 1318.38 2257 1337.14 2257 1337.14 2275.65 1345.18 2275.65 1345.18 2257 1363.94 2257 1363.94 2249 1345.18 2249 1345.18 2230.35ZM1371.98 2201.03 1371.98 2217.02 1355.9 2217.02 1355.9 2222.35 1371.98 2222.35 1371.98 2238.34 1377.34 2238.34 1377.34 2222.35 1393.42 2222.35 1393.42 2217.02 1377.34 2217.02 1377.34 2201.03ZM1304.98 2201.03 1304.98 2217.02 1288.9 2217.02 1288.9 2222.35 1304.98 2222.35 1304.98 2238.34 1310.34 2238.34 1310.34 2222.35 1326.42 2222.35 1326.42 2217.02 1310.34 2217.02 1310.34 2201.03ZM1338.48 2187.7 1338.48 2199.7 1327.76 2199.7 1327.76 2205.03 1338.48 2205.03 1338.48 2217.02 1343.84 2217.02 1343.84 2205.03 1354.56 2205.03 1354.56 2199.7 1343.84 2199.7 1343.84 2187.7ZM1342.5 2164C1391.93 2164 1432 2203.85 1432 2253 1432 2302.15 1391.93 2342 1342.5 2342 1293.07 2342 1253 2302.15 1253 2253 1253 2203.85 1293.07 2164 1342.5 2164Z" fill-rule="evenodd"/></g></svg>